How.I.Met.Your.Mother.S08E08.HDTV.x264-LOL

Screenshots:
 
http://imageshack.us/a/img341/3766/vlcsnap2012112714h27m31.png
 
http://imageshack.us/a/img211/278/vlcsnap2012112714h27m34.png
 
http://imageshack.us/a/img27/2416/vlcsnap2012112714h27m37.png

NFO:

Format : MPEG-4
Format profile : Base Media
Codec ID : isom
File size : 167 MiB
Duration : 21mn 35s
Overall bit rate mode : Variable
Overall bit rate : 1 082 Kbps
Encoded date : UTC 2012-11-25 17:06:31
Tagged date : UTC 2012-11-25 17:06:31

Video
ID : 1
Format : AVC
Format/Info : Advanced Video Codec
Format profile : High@L3.1
Format settings, CABAC : Yes
Format settings, ReFrames : 5 frames
Codec ID : avc1
Codec ID/Info : Advanced Video Coding
Duration : 21mn 35s
Bit rate : 955 Kbps
Maximum bit rate : 5 607 Kbps
Width : 720 pixels
Height : 404 pixels
Display aspect ratio : 16:9
Frame rate mode : Constant
Frame rate : 23.976 fps
Color space : YUV
Chroma subsampling : 4:2:0
Bit depth : 8 bits
Scan type : Progressive
Bits/(Pixel*Frame) : 0.137
Stream size : 147 MiB (88%)
Writing library : x264 core 129 r2230 1cffe9f
Encoding settings : cabac=1 / ref=5 / deblock=1:2:2 / analyse=0x3:0x133 / me=umh / subme=9 / psy=1 / psy_rd=1.00:0.00 / mixed_ref=1 / me_range=16 / chroma_me=1 / trellis=2 / 8x8dct=1 / cqm=0 / deadzone=21,11 / fast_pskip=0 / chroma_qp_offset=-2 / threads=20 / lookahead_threads=3 / sliced_threads=0 / nr=0 / decimate=1 / interlaced=0 / bluray_compat=0 / constrained_intra=0 / bframes=3 / b_pyramid=2 / b_adapt=2 / b_bias=0 / direct=3 / weightb=1 / open_gop=0 / weightp=2 / keyint=250 / keyint_min=23 / scenecut=40 / intra_refresh=0 / rc_lookahead=60 / rc=crf / mbtree=1 / crf=20.0 / qcomp=0.60 / qpmin=0 / qpmax=69 / qpstep=4 / ip_ratio=1.40 / aq=1:1.00
Encoded date : UTC 2012-11-26 15:07:40
Tagged date : UTC 2012-11-25 17:06:35
Matrix coefficients : BT.709

Audio
ID : 2
Format : AAC
Format/Info : Advanced Audio Codec
Format profile : LC
Codec ID : 40
Duration : 21mn 35s
Bit rate mode : Variable
Bit rate : 123 Kbps
Maximum bit rate : 175 Kbps
Channel(s) : 2 channels
Channel positions : Front: L R
Sampling rate : 48.0 KHz
Compression mode : Lossy
Delay relative to video : 83ms
Stream size : 19.0 MiB (11%)
Encoded date : UTC 2012-11-25 17:06:34
Tagged date : UTC 2012-11-25 17:06:35